{"title":"Natural World 2011: Komodo, Secrets of the Dragon 720p [aularon]","uid":6628245,"size":1125898465,"categoryP":"video","categoryS":"hd___tv_shows","magnet":"?xt=urn:btih:03ea43484fb9398b50aba3400c8f8209656608ac&amp;dn=Natural+World+2011%3A+Komodo%2C+Secrets+of+the+Dragon+720p+%5Baularon%5D&amp;tr=udp%3A%2F%2Ftracker.openbittorrent.com%3A80&amp;tr=udp%3A%2F%2Fopen.demonii.com%3A1337&amp;tr=udp%3A%2F%2Ftracker.coppersurfer.tk%3A6969&amp;tr=udp%3A%2F%2Fexodus.desync.com%3A6969","seeders":1,"leechers":0,"uploader":"aularon","files":-1,"time":1314234074,"description":"BBC Natural World 2011/2012 E04 Komodo - Secrets of the Dragon 720p x264 aac mp4 w/subtitles [aularon]\n\n- - -\nSynopsis\n- - -\nThe Komodo dragon was discovered one hundred years ago, yet the true nature of the biggest lizard in the world is only just being uncovered. Using hi-tech tools to take a fresh look at this prehistoric beast, Dr Bryan Fry discovers there is a lot more to the dragon than meets the eye - from hidden venom glands to its secret origins.\n\n\n- - -\nURL\n- - -   &lt;a href=&quot;\nhttp://www.bbc.co.uk/programmes/b013sgpk&quot; rel=&quot;nofollow&quot; target=&quot;_NEW&quot;&gt;\nhttp://www.bbc.co.uk/programmes/b013sgpk&lt;/a&gt;\n\n\n- - -\nTechnical Details\n- - -\nGeneral\nComplete name                    : BBC.Natural.World.2011.E04.Komodo.Secrets.of.the.Dragon/Natural_World_-_2011-2012_4._Komodo_-_Secrets_of_the_Dragon_b013sgpk_default.mp4\nFormat                           : MPEG-4\nFormat profile                   : Base Media\nCodec ID                         : isom\nFile size                        : 1.05 GiB\nDuration                         : 58mn 41s\nOverall bit rate                 : 2 558 Kbps\nWriting application              : Lavf53.6.0\n\nVideo\nID                               : 1\nFormat                           : AVC\nFormat/Info                      : Advanced Video Codec\nFormat profile                   : &lt;a class=&quot;__cf_email__&quot; href=&quot;/cdn-cgi/l/email-protection&quot; data-cfemail=&quot;165e7f717e565a223827&quot;&gt;[email&amp;#160;protected]&lt;/a&gt;&lt;script cf-hash='f9e31' type=&quot;text/javascript&quot;&gt;\n/* &lt;![CDATA[ */!function(){try{var t=&quot;currentScript&quot;in document?document.currentScript:function(){for(var t=document.getElementsByTagName(&quot;script&quot;),e=t.length;e--;)if(t[e].getAttribute(&quot;cf-hash&quot;))return t[e]}();if(t&amp;&amp;t.previousSibling){var e,r,n,i,c=t.previousSibling,a=c.getAttribute(&quot;data-cfemail&quot;);if(a){for(e=&quot;&quot;,r=parseInt(a.substr(0,2),16),n=2;a.length-n;n+=2)i=parseInt(a.substr(n,2),16)^r,e+=String.fromCharCode(i);e=document.createTextNode(e),c.parentNode.replaceChild(e,c)}}}catch(u){}}();/* ]]&gt; */&lt;/script&gt;\nFormat settings, CABAC           : Yes\nFormat settings, ReFrames        : 6 frames\nCodec ID                         : avc1\nCodec ID/Info                    : Advanced Video Coding\nDuration                         : 58mn 41s\nBit rate mode                    : Variable\nBit rate                         : 2 457 Kbps\nMaximum bit rate                 : 3 500 Kbps\nWidth                            : 1 280 pixels\nHeight                           : 720 pixels\nDisplay aspect ratio             : 16:9\nFrame rate mode                  : Constant\nFrame rate                       : 25.000 fps\nStandard                         : PAL\nColor space                      : YUV\nChroma subsampling               : 4:2:0\nBit depth                        : 8 bits\nScan type                        : Progressive\nBits/(Pixel*Frame)               : 0.107\nStream size                      : 1.01 GiB (96%)\n\nAudio\nID                               : 2\nFormat                           : AAC\nFormat/Info                      : Advanced Audio Codec\nFormat profile                   : HE-AAC / LC\nCodec ID                         : 40\nDuration                         : 58mn 41s\nBit rate mode                    : Constant\nBit rate                         : 96.0 Kbps\nChannel(s)                       : 2 channels\nChannel positions                : Front: L R\nSampling rate                    : 48.0 KHz / 24.0 KHz\nCompression mode                 : Lossy\nStream size                      : 39.8 MiB (4%)\n","torrent":{"xt":"urn:btih:03ea43484fb9398b50aba3400c8f8209656608ac","amp;dn":"Natural+World+2011%3A+Komodo%2C+Secrets+of+the+Dragon+720p+%5Baularon%5D","amp;tr":["udp%3A%2F%2Ftracker.openbittorrent.com%3A80","udp%3A%2F%2Fopen.demonii.com%3A1337","udp%3A%2F%2Ftracker.coppersurfer.tk%3A6969","udp%3A%2F%2Fexodus.desync.com%3A6969"],"infoHash":"03ea43484fb9398b50aba3400c8f8209656608ac","infoHashBuffer":{"type":"Buffer","data":[3,234,67,72,79,185,57,139,80,171,163,64,12,143,130,9,101,102,8,172]},"announce":[],"urlList":[]}}